<?xml version="1.0" standalone="no"?>
<!DOCTYPE svg PUBLIC "-//W3C//DTD SVG 20010904//EN"
 "http://www.w3.org/TR/2001/REC-SVG-20010904/DTD/svg10.dtd">
<svg version="1.0" xmlns="http://www.w3.org/2000/svg"
 width="952.000000pt" height="402.000000pt" viewBox="0 0 952.000000 402.000000"
 preserveAspectRatio="xMidYMid meet">

<g transform="translate(0.000000,402.000000) scale(0.100000,-0.100000)"
fill="#000000" stroke="none">
<path d="M3670 3160 c-358 -33 -749 -146 -1139 -331 l-124 -59 -24 22 c-33 31
-26 57 41 165 30 48 53 90 50 92 -2 2 -65 10 -141 17 -76 7 -331 31 -567 54
-235 23 -430 39 -433 36 -9 -9 -42 -151 -48 -210 -14 -129 31 -266 119 -363
49 -55 143 -122 235 -168 l55 -27 -29 -22 c-248 -179 -375 -406 -375 -666 0
-340 228 -636 562 -726 86 -24 279 -24 368 0 154 41 319 150 407 269 102 139
142 252 150 422 5 102 2 134 -16 205 -39 159 -135 316 -249 405 -105 83 -225
139 -525 247 -240 85 -373 157 -426 229 -26 35 -51 101 -51 135 0 30 -12 30
315 -1 143 -14 270 -25 282 -25 18 0 22 -8 28 -52 34 -252 336 -372 1020 -408
105 -5 538 -10 963 -10 l772 0 0 -38 c0 -65 -29 -130 -79 -180 -102 -102 -259
-151 -751 -232 -381 -63 -566 -118 -708 -209 -63 -40 -153 -135 -181 -189 -46
-90 -63 -238 -45 -376 l7 -46 1413 0 1414 0 45 -35 c118 -89 250 -130 425
-128 153 1 273 29 417 97 l96 46 449 0 449 0 -6 93 c-16 242 -57 368 -157 474
-54 56 -147 109 -210 119 l-38 7 0 86 c0 115 -21 206 -67 293 -120 229 -373
366 -783 424 -107 15 -224 18 -817 22 l-691 4 -27 53 c-120 237 -428 414 -819
470 -131 19 -425 27 -556 15z m547 -245 c227 -38 409 -115 518 -217 36 -33 65
-65 65 -70 0 -6 -316 -8 -862 -5 -737 3 -885 6 -1012 21 -81 10 -157 21 -168
25 -15 6 15 21 127 64 252 98 484 160 700 186 50 6 104 13 120 15 67 9 425 -4
512 -19z m2373 -549 c224 -38 390 -103 488 -191 68 -61 115 -155 120 -242 3
-44 1 -63 -8 -63 -6 0 -52 20 -102 45 -96 48 -208 121 -298 194 -163 132 -395
173 -607 106 -316 -99 -506 -442 -424 -765 11 -46 21 -87 21 -92 0 -12 -2417
-10 -2425 2 -9 14 32 100 63 134 93 99 272 155 734 231 390 64 515 97 672 178
183 94 295 264 296 445 l0 43 688 -4 c575 -4 703 -7 782 -21z m-4480 -133
c214 -82 321 -165 384 -296 46 -96 58 -147 59 -237 0 -298 -254 -537 -548
-517 -192 13 -351 120 -435 292 -89 182 -65 400 62 552 88 104 306 268 343
257 11 -4 72 -26 135 -51z m4398 -228 c49 -15 90 -40 250 -156 85 -62 201
-129 302 -173 36 -16 69 -32 74 -36 13 -13 -55 -117 -121 -186 -136 -142 -299
-230 -487 -263 -225 -40 -433 55 -520 238 -29 62 -31 73 -31 176 1 97 4 117
27 167 48 103 151 195 257 229 69 22 181 24 249 4z m962 -460 c51 -27 102
-105 115 -178 l7 -37 -186 0 c-102 0 -186 2 -186 5 0 2 17 27 38 54 20 28 50
76 66 108 43 84 41 83 84 71 20 -6 48 -16 62 -23z"/>
</g>
</svg>
